<?xml version="1.0" standalone="no"?><!DOCTYPE svg PUBLIC "-//W3C//DTD SVG 1.1//EN" "http://www.w3.org/Graphics/SVG/1.1/DTD/svg11.dtd"><svg t="1721009850745" class="icon" viewBox="0 0 1024 1024" version="1.1" xmlns="http://www.w3.org/2000/svg" p-id="23709" xmlns:xlink="http://www.w3.org/1999/xlink" width="200" height="200"><path d="M648.192 192.512v215.296h-68.096V171.6736c-18.7392-3.4304-39.168-6.912-59.5968-6.912-25.4976 0-51.0464 3.4816-76.5952 10.3936v232.6528H375.808V201.216c-114.0224 59.0336-199.168 184.064-217.856 335.104-74.9056 31.232-122.5728 76.3904-122.5728 131.9424 0 67.6864 68.096 116.3264 168.4992 149.2992 86.8352 27.8016 197.4784 41.6768 308.1216 41.6768 119.1424 0 238.336-17.3568 328.4992-48.64 88.576-31.232 148.1216-79.872 148.1216-142.336-1.6896-52.0704-42.5472-93.7472-105.5232-123.2896-17.0496-161.4336-110.6432-296.8576-234.9056-352.4608z"  p-id="23710"></path></svg>
