<svg class="icon" viewBox="0 0 1024 1024" version="1.1" xmlns="http://www.w3.org/2000/svg" xmlns:xlink="http://www.w3.org/1999/xlink" width="200" height="200"><path d="M6.4 512C0 518.4 0 531.2 0 544s0 25.6 6.4 32c6.4 12.8 19.2 19.2 25.6 25.59999999L761.6 1017.6c19.2 12.8 44.8 12.8 64 0 12.8-6.4 12.8-12.8 19.2-25.6s6.4-19.2 6.4-32l0-819.2c0-12.8 0-25.6-6.40000001-32-6.4-12.8-12.8-19.2-19.19999999-25.6-19.2-12.8-44.8-12.8-64 0L32 486.4C25.6 492.8 12.8 499.2 6.4 512z" fill="currentColor"></path></svg>
