<svg class="icon" viewBox="0 0 1024 1024" version="1.1" xmlns="http://www.w3.org/2000/svg" xmlns:xlink="http://www.w3.org/1999/xlink" width="200" height="200"><path d="M938.666667 554.666667a85.333333 85.333333 0 0 1 85.333333 85.333333v298.666667a85.333333 85.333333 0 0 1-85.333333 85.333333h-298.666667a85.333333 85.333333 0 0 1-85.333333-85.333333v-298.666667a85.333333 85.333333 0 0 1 85.333333-85.333333zM384 554.666667a85.333333 85.333333 0 0 1 85.333333 85.333333v298.666667a85.333333 85.333333 0 0 1-85.333333 85.333333H85.333333a85.333333 85.333333 0 0 1-85.333333-85.333333v-298.666667a85.333333 85.333333 0 0 1 85.333333-85.333333zM938.666667 0a85.333333 85.333333 0 0 1 85.333333 85.333333v298.666667a85.333333 85.333333 0 0 1-85.333333 85.333333h-298.666667a85.333333 85.333333 0 0 1-85.333333-85.333333V85.333333a85.333333 85.333333 0 0 1 85.333333-85.333333zM234.666667 0a234.666667 234.666667 0 1 1 0 469.333333 234.666667 234.666667 0 0 1 0-469.333333z" fill="currentColor"></path></svg>
