<?xml version="1.0" standalone="no"?><!DOCTYPE svg PUBLIC "-//W3C//DTD SVG 1.1//EN" "http://www.w3.org/Graphics/SVG/1.1/DTD/svg11.dtd"><svg t="1721009624501" class="icon" viewBox="0 0 1024 1024" version="1.1" xmlns="http://www.w3.org/2000/svg" p-id="18229" xmlns:xlink="http://www.w3.org/1999/xlink" width="200" height="200"><path d="M125.028567 1023.641788c-7.266589-1.94458-16.068372 3.735641-22.311498-4.145026-3.172736-4.04268-10.336978-6.140779-9.211169-12.076866 1.791061-9.467035-4.093853-16.426584-6.038433-24.563116-6.80603-29.219874-13.816753-58.490922-23.33496-86.892026-3.172736-9.415861-4.145026-19.394628-7.675974-28.912835-5.373182-15.147255 9.211169-32.801995 26.558869-36.844675 33.262554-7.93184 66.218069-16.631277 99.173584-25.58658 32.187917-8.75061 65.245779-15.658987 97.740735-23.795519 22.311498-5.373182 44.827688-12.332731 67.088012-18.62703 23.232614-6.550164 47.079307-11.309268 70.414268-17.808259 23.386134-6.498991 48.307463-12.486251 72.665887-18.729377 16.938316-4.400892 33.774285-9.211169 50.661428-13.61206 31.57384-8.187706 63.096506-16.068372 94.567999-24.307251 29.782779-7.829493 59.412038-16.119545 89.297163-23.949039 31.42032-8.187706 63.608237-13.61206 94.158614-25.074848 8.545918-3.275082 17.910606-2.865697 26.814736-6.601338 6.703684-2.814524 15.71016-0.255866 23.693173 0 2.865697 10.490498 10.746364 18.62703 13.151502 29.47574 9.006476 36.43529 18.934069 72.56354 28.50345 108.845311 3.530948 11.104576 6.396645 22.413844 8.545918 33.876632 1.893407 13.509714-1.94458 18.319991-16.068373 20.469263a379.909537 379.909537 0 0 0-60.74254 15.351948 444.745931 444.745931 0 0 1-60.128463 16.068372c-46.414056 8.034186-90.218281 25.43306-136.52999 33.774286-28.50345 5.322009-55.983437 16.068372-84.486886 22.311497-25.177195 5.373182-49.740311 14.123792-74.866333 19.75284-23.642 5.373182-46.260536 14.174965-70.311921 18.268818-17.961779 3.019216-35.155961 10.234632-53.015394 14.021446-23.744346 4.963796-46.721095 12.844463-70.260748 18.422337-25.074848 5.98726-50.252043 11.974519-75.173372 19.189935-23.232614 6.754857-47.284 10.746364-70.056055 18.678203-7.93184 3.019216-15.249602 1.432848-22.823229 3.019217z m707.315413-343.576594c-1.94458 1.381675-4.400892 4.400892-7.420109 5.117316-4.247372 0.97229-9.006476-0.614078-13.253848 0.358212-14.584351 3.377429-17.347701 10.439325-13.61206 25.944792 5.98726 25.023675 15.761333 48.972714 19.855186 74.50812 1.535195 9.7229 10.746364 16.119545 18.678203 11.309269 7.93184-4.759104 17.501221-5.01497 25.484233-9.671728 4.093853-2.302792 5.373182-6.80603 3.735641-7.983012-10.439325-7.010723 0.460558-21.492727-10.746364-27.889372 2.0981-10.746364-4.605584-19.75284-6.550164-29.526914a177.519691 177.519691 0 0 0-9.211169-35.923558c-1.176983-3.377429-1.279329-6.550164-6.959549-6.243125z m135.813565-311.337504v3.530948a201.622249 201.622249 0 0 1-1.023463 17.552394 199.472976 199.472976 0 0 1-2.76335 17.398874 158.892661 158.892661 0 0 1-6.806031 23.590827 184.223375 184.223375 0 0 1-10.132285 22.465017 221.477435 221.477435 0 0 1-7.164243 12.128039 199.217111 199.217111 0 0 1-5.987259 8.699437 350.177932 350.177932 0 0 1-48.409809 55.522878 351.354914 351.354914 0 0 1-34.183671 28.145238 247.985132 247.985132 0 0 1-31.317974 21.492727c-10.490498 5.373182-15.351948-2.353965-18.268818-5.117316-9.057649-8.341225-7.624801-20.213398 0.358212-32.187917 15.351948-22.874402 29.373394-47.079307 35.309481-73.740523a111.762181 111.762181 0 0 0 2.456311-14.686697 82.235268 82.235268 0 0 0 0.307039-11.923346 82.388787 82.388787 0 0 0-1.176983-11.821 94.926211 94.926211 0 0 0-11.820999-33.51842 98.15012 98.15012 0 0 0-12.281559-16.784796c-16.631277-18.934069-38.072831-31.42032-59.616731-43.804225-26.865909-15.403121-54.806454-29.47574-79.113705-48.307463a143.438367 143.438367 0 0 1-18.319991-16.375411 170.764834 170.764834 0 0 1-13.458541-16.273064 138.321051 138.321051 0 0 1-9.415861-14.840217 144.103618 144.103618 0 0 1-10.234632-22.362671 151.421379 151.421379 0 0 1-6.550165-23.693172c-3.019216-14.635524-8.443571-29.987472-3.121562-42.934281 4.093853-9.7229 0-19.650493 4.912623-27.377641 4.963796-7.675974 7.215416-15.044909 11.053403-22.311497a266.765681 266.765681 0 0 0 14.840216-28.094065 40.836181 40.836181 0 0 1 7.880666-10.336978c17.245355-16.887143 34.183671-34.081324 51.275506-51.17316 1.791061-1.995753 3.684467-3.88916 5.731394-5.629048 14.789043-11.360441 35.514173-3.428602 40.938528 15.044909 1.228156 3.991506-2.200446 3.735641-2.712177 5.731394-8.034186 33.671939-16.119545 67.343878-11.872173 102.34632a65.041086 65.041086 0 0 0 3.428601 16.887142 60.793714 60.793714 0 0 0 21.441554 28.912835l1.381675 1.023464c21.492727 14.993736 46.567575 21.492727 70.107229 31.778532 18.319991 7.93184 36.793502 14.840216 53.731818 26.865909 31.778532 22.51619 58.235056 48.921541 72.307674 85.868562a106.286653 106.286653 0 0 1 7.727148 29.782779 112.478605 112.478605 0 0 1 0.511731 18.524683z"  p-id="18230"></path></svg>
