<?xml version="1.0" standalone="no"?><!DOCTYPE svg PUBLIC "-//W3C//DTD SVG 1.1//EN" "http://www.w3.org/Graphics/SVG/1.1/DTD/svg11.dtd"><svg t="1721009554515" class="icon" viewBox="0 0 1024 1024" version="1.1" xmlns="http://www.w3.org/2000/svg" p-id="16792" xmlns:xlink="http://www.w3.org/1999/xlink" width="200" height="200"><path d="M116.4288 68.096h768c35.328 0 64 28.672 64.3584 64v492.3392a218.3168 218.3168 0 0 0-371.2512 190.976c-7.168 2.816-19.8656 5.12-35.8912 6.656v62.3616c-0.1536 7.424-18.5856 13.568-41.1136 13.568-22.528 0-40.96-5.9904-41.0624-13.568v-62.3104c-25.2416-2.304-42.24-6.8096-42.24-11.9296V737.792H361.984v72.448c0 5.12-16.9984 9.472-42.24 11.9296v62.3104c-0.1024 7.424-18.5344 13.568-41.0624 13.568-22.528 0-40.96-5.9904-41.1136-13.568v-62.3104c-25.1904-2.304-42.24-6.8096-42.24-11.9296V737.792H116.4288c-35.328 0-64-28.672-64-64V132.096c0-35.328 28.672-64 64-64z m6.3488 103.9872h1.536a32.1024 32.1024 0 0 0 16.4864-59.392 31.744 31.744 0 0 0-31.5392-0.768 32.3584 32.3584 0 0 0-16.2816 21.9648 33.024 33.024 0 0 0 0.7168 15.5136 31.5392 31.5392 0 0 0 14.1824 18.176 32.9216 32.9216 0 0 0 14.848 4.5056z m751.9744 0h1.5872a32.1024 32.1024 0 0 0 16.4352-59.392 33.3824 33.3824 0 0 0-13.312-4.4032 31.1296 31.1296 0 0 0-16.7936 2.9184 35.2256 35.2256 0 0 0-7.8336 5.2224 38.8608 38.8608 0 0 0-4.1984 4.608 39.424 39.424 0 0 0-3.2256 5.4272 29.4912 29.4912 0 0 0-2.9184 10.5472 32.0512 32.0512 0 0 0 30.2592 35.072z m-130.7648 326.4512c6.656 0 12.032-5.376 12.032-12.032h0.1536V319.3344a12.032 12.032 0 0 0-12.032-12.032h-487.424a12.032 12.032 0 0 0-12.032 12.032v167.168c0 6.656 5.376 12.032 12.032 12.032h487.2704z m-621.2096 199.168a32.0512 32.0512 0 0 0 12.3392-62.1568 25.9072 25.9072 0 0 0-6.0928-1.536 26.624 26.624 0 0 0-6.2464-0.256 32 32 0 0 0 0 63.8976z"  p-id="16793"></path><path d="M792.3712 597.504a179.2 179.2 0 1 0 0 358.4 179.2 179.2 0 0 0 0-358.4z m0 279.808a18.8928 18.8928 0 1 1 0-37.7856 18.8928 18.8928 0 0 1 0 37.7856zM824.32 696.32l-16.0256 99.6864c-2.2016 12.9536-9.3184 23.552-15.872 23.552-6.656 0-13.7216-10.5984-15.872-23.552l-16.0768-99.6864c-2.1504-13.0048 6.8608-27.136 19.968-27.136h23.8592c13.1584 0 22.1696 14.1312 19.968 27.136z"  p-id="16794"></path></svg>
