<?xml version="1.0" standalone="no"?><!DOCTYPE svg PUBLIC "-//W3C//DTD SVG 1.1//EN" "http://www.w3.org/Graphics/SVG/1.1/DTD/svg11.dtd"><svg t="1721009507010" class="icon" viewBox="0 0 1024 1024" version="1.1" xmlns="http://www.w3.org/2000/svg" p-id="15774" xmlns:xlink="http://www.w3.org/1999/xlink" width="200" height="200"><path d="M289.28 154.88a39.7824 39.7824 0 0 0 1.6896-0.8704c101.6832-56.7808 212.1216-56.7808 335.36 1.2288a42.1888 42.1888 0 0 0 13.1584 3.7888 39.1168 39.1168 0 0 0 29.2352-8.704 35.3792 35.3792 0 0 0 6.7584-7.0656 40.5504 40.5504 0 0 0 7.5776-19.8656 35.5328 35.5328 0 0 0-0.3072-9.728 35.328 35.328 0 0 0-2.6624-9.4208 44.5952 44.5952 0 0 0-4.9152-8.448 38.8608 38.8608 0 0 0-15.1552-12.0832c-145.408-68.4544-282.624-68.4544-407.552 1.28a37.632 37.632 0 0 0-11.52 10.0352 40.448 40.448 0 0 0-3.1744 4.8128l-0.8704 1.6896a40.704 40.704 0 0 0-4.1472 18.5856 39.936 39.936 0 0 0 13.4144 28.7232 40.8064 40.8064 0 0 0 15.0016 8.2944l1.8432 0.512a40.448 40.448 0 0 0 20.8896-0.7168 39.3216 39.3216 0 0 0 5.376-2.048z m149.9648 44.7488L398.336 285.4912H74.0864a39.424 39.424 0 0 0-39.4752 39.4752v474.2656a38.912 38.912 0 0 0 7.7312 23.552 42.496 42.496 0 0 0 8.192 8.192 40.0384 40.0384 0 0 0 23.552 7.7824h473.6a243.5584 243.5584 0 0 1 38.5536-191.6416 20.5824 20.5824 0 0 1-3.4816 1.1264 23.552 23.552 0 0 1-5.376 0.768 29.7984 29.7984 0 0 1-10.6496-1.536 22.2208 22.2208 0 0 1-4.9152-2.3552 30.5152 30.5152 0 0 1-6.2976-5.12 27.648 27.648 0 0 1-7.168-18.5856V502.784a23.9616 23.9616 0 0 1 0.8192-6.7072 23.552 23.552 0 0 1 1.8432-5.12 27.0848 27.0848 0 0 1 13.2096-13.1584 27.5456 27.5456 0 0 1 37.376 14.3872 27.904 27.904 0 0 1 2.048 10.5984v118.5792a29.7984 29.7984 0 0 1-0.256 4.0448c16.0768-18.0736 34.816-33.6896 55.6032-46.336v-76.288a23.9616 23.9616 0 0 1 0.8704-6.7072 23.552 23.552 0 0 1 1.792-5.12 27.0848 27.0848 0 0 1 13.2096-13.1584 27.5456 27.5456 0 0 1 37.376 14.3872 27.904 27.904 0 0 1 2.0992 10.5984v51.6096a242.5856 242.5856 0 0 1 70.2464-10.2912c30.976 0 60.6208 5.7856 87.8592 16.384v-235.52a40.8064 40.8064 0 0 0-3.7888-16.896 37.5296 37.5296 0 0 0-9.216-12.3904 35.5328 35.5328 0 0 0-7.8848-5.632 39.0656 39.0656 0 0 0-18.6368-4.608H508.672l-40.9088-85.8624a15.872 15.872 0 0 0-0.512-1.024l-0.512-0.9216a15.2576 15.2576 0 0 0-5.7344-5.1712 15.8208 15.8208 0 0 0-21.76 7.168z m-80.5888 362.496a86.9376 86.9376 0 1 1-173.8752 0 86.9376 86.9376 0 0 1 173.8752 0z"  p-id="15775"></path><path d="M804.4544 940.032a157.7472 157.7472 0 0 1-22.784 1.5872c-84.2752 0-152.7296-69.4272-152.7296-154.9312 0-85.504 68.4032-154.9824 152.7296-154.9824 84.2752 0 152.7296 69.4272 152.7296 154.9824 0 4.608-0.3072 9.216-0.512 13.824 17.408 6.0416 32.9728 16.896 44.8 30.5664 3.2256-14.4384 4.8128-29.184 4.8128-44.3904 0-113.0496-90.4704-204.8-201.8304-204.8-111.4112 0-201.8816 91.7504-201.8816 204.8 0 112.9984 90.4704 204.8 201.8816 204.8 19.3024 0 37.8368-2.7648 55.552-7.936a106.7008 106.7008 0 0 1-32.768-43.52z m107.1104-144.64c-3.7376-0.256-7.5264-0.512-11.264-0.512-57.1904 0-103.6288 47.104-103.8848 104.8064 0 5.9904 0.512 11.9808 1.5872 17.7152-5.3248 0.8192-10.752 1.0752-16.384 1.0752-71.8848 0-130.1504-59.0848-130.1504-132.096 0-72.96 58.2656-132.096 130.2016-132.096 71.936 0 130.1504 59.136 130.1504 132.096 0 3.0208 0 5.9904-0.256 9.0112z m-129.8944-122.0096c-37.888 0-68.4544 15.5136-68.4544 34.56 0 19.0976 30.5664 34.6112 68.4544 34.6112 37.8368 0 68.4032-15.5136 68.4032-34.6112 0-19.0464-30.5664-34.56-68.4032-34.56z m146.0224 165.2736l-6.4512 6.5536c-2.1504 2.2016-2.1504 6.2464 0.256 8.192l34.6112 32.6656h-112.128l34.304-32.4096a5.7344 5.7344 0 0 0 0.256-8.192l-6.4-6.5024c-2.2016-2.2016-5.632-2.2016-8.0896 0l-52.0704 51.712c-2.4064 1.9456-2.4064 5.4784 0 7.936l50.9952 51.456a5.7856 5.7856 0 0 0 8.0384 0l5.632-5.9904a5.9904 5.9904 0 0 0 0-8.192l-32.9216-33.1776h112.128l-32.768 32.9216a5.9904 5.9904 0 0 0 0 8.192l5.632 5.9904a5.7856 5.7856 0 0 0 8.0896 0l50.9952-51.5072a5.9904 5.9904 0 0 0 0-8.192l-52.6336-51.712c-1.8432-2.2016-5.3248-2.2016-7.4752 0.256z"  p-id="15776"></path></svg>
